M48
;Layer_Color=9474304
;FILE_FORMAT=4:2
METRIC,TZ
;TYPE=PLATED
T01F00S00C0.20
T02F00S00C0.50
T03F00S00C0.60
T04F00S00C0.65
T05F00S00C3.30
%
T01
X65Y121
Y221
Y321
Y421
Y521
Y621
Y721
Y821
Y921
Y1021
Y1121
Y1221
Y1321
Y1421
Y1521
Y1621
Y1721
Y1821
Y1921
Y2021
Y2121
Y2221
Y2321
Y2421
X678Y2159
X1278
X1878
X2446Y2215
X2405Y2386
X2165Y1778
X2544Y1448
X2778Y1559
X3023Y2151
X3078Y959
X3062Y891
X3037Y825
X2729Y760
Y695
X2325Y508
X2178Y359
X2147Y65
X2247
X2347
X2447
X2547
X2647
X2747
X2847
X2947
X3047
X3147
X2047
X1947
X1847
X1747
X1647
X1547
X1447
X1347
X1247
X1147
X1047
X947
X847
X747
X647
X547
X447
X347
X247
X147
X978Y359
X1578
X2166Y743
X1578Y1559
X978
X378
X678Y959
X3341Y955
Y760
X3412Y695
Y565
X3607Y742
Y931
X3527Y1105
X3780
X3869Y1071
Y1269
Y1397
X4087
X4276Y968
X4047Y738
X4446Y636
X4512
X4547Y65
X4647
X4747
X4847
X4947
X5047
X5147
X5247
X5347
X5447
X5547
X5647
X5747
X5847
X5947
X6047
X6147
X6247
X6347
X6447
X6547
X6647
X6747
X6847
X6947
X7047
X6978Y359
X6680Y637
X6678Y959
X6513Y1230
Y1290
Y1357
Y1417
X6378Y1559
X5807Y1738
Y1808
X5156Y1778
X4570Y1612
X4497
X4878Y959
X5478
X5627Y982
X5893
X6078Y959
X6324Y607
X6378Y359
X6678Y2159
X4087Y2235
X3547Y2151
X3524Y2380
X3488Y2469
X3257Y1453
X3247Y65
X3347
X3447
X3547
X3647
X3747
X3847
X3947
X4047
X4147
X4247
X4347
X4447
X7147
X7247
X7347
X7447
X7547
X7647
X7747
X7847
X7947
X8047
X8147
X8247
X8347
X8435Y114
X8435Y214
Y314
Y414
Y514
Y614
Y714
Y814
Y914
Y1014
Y1114
Y1214
Y1314
Y1414
Y1514
Y1614
Y1714
Y1814
Y1914
Y2014
Y2114
Y2214
Y2314
Y2414
X7878Y2159
X7554Y1748
Y1702
X7471
Y1748
X7388
Y1702
X7471Y1267
X7278Y959
X7878
X7578Y359
Y2759
X7878Y3359
X7278
X7578Y3959
X7878Y4559
X7278
X7578Y5159
X8177Y5132
X8174Y5232
Y5332
Y5432
Y5532
Y5632
Y5732
Y5832
Y5932
Y6032
Y6132
Y6232
Y6332
Y6432
X7878Y5759
X8238Y5053
X8337Y5040
X8434Y5014
X8435Y4914
Y4814
Y4714
Y4614
Y4514
Y4414
Y4314
Y4214
Y4114
Y4014
Y3914
Y3814
Y3714
Y3614
Y3514
Y3414
Y3314
Y3214
Y3114
Y3014
Y2914
Y2814
Y2714
Y2614
Y2514
X7035Y2950
X6678Y3359
X6410Y3450
X6078Y3359
X5478
X5476Y3650
X5178Y3959
X5778
X6378
X6410Y4170
X6678Y4559
X6925Y4902
X6410Y4890
X6078Y4559
X5478
X5476Y4370
Y5090
Y5810
X5664Y6020
X6410Y6330
X6800Y6383
Y6193
Y5994
Y5804
X6782Y5605
Y5428
X6410Y5610
X4550Y5835
X4039Y5900
Y5735
X3969Y5520
Y5354
X4039Y5180
Y5015
X3969Y4800
Y4635
X4132Y4708
X4132Y4778
X4039Y4460
Y4296
X3969Y4080
Y3915
X4039Y3740
Y3576
X3969Y3360
X4132Y3338
X3769Y3288
X3719Y3248
X3669Y3288
X3498Y3268
X3365Y3350
X3205Y3177
X3205Y3897
X3365Y4070
X3498Y3988
X3669Y4008
X3719Y3968
X3769Y4008
X3819Y3807
X3669
X3652Y3575
Y3475
Y4195
Y4295
X3669Y4527
X3819
X3769Y4728
X3719Y4688
X3669Y4728
X3498Y4708
X3365Y4790
X3205Y4617
Y5338
X3365Y5510
X3498Y5428
X3669Y5448
X3719Y5408
X3769Y5448
X3819Y5247
X3669
X3655Y5015
Y4915
Y5635
Y5735
X3669Y5967
X3819
X3769Y6168
X3719Y6128
X3669Y6168
X3652Y6341
X3498Y6148
X3365Y6230
X3205Y6058
X3969Y6074
Y6240
X4132Y6218
Y5498
X4550Y5115
Y4395
X4557Y3675
X4878Y3359
X4578Y2759
X5178
X5778
X3978
X4132Y4058
X2778Y3959
X2178
X1578
X1743Y3650
X1878Y3359
X2478
X3078
X2325Y2769
X2178Y2759
X1578
X978
X1278Y3359
X678
X65Y3321
Y3221
Y3121
Y3021
Y2921
Y2821
Y2721
Y2621
Y2521
Y3421
Y3521
Y3621
Y3721
Y3821
Y3921
Y4021
Y4121
Y4221
Y4321
Y4421
Y4521
Y4621
Y4721
Y4821
Y4921
Y5021
Y5121
Y5221
Y5321
Y5421
Y5521
Y5621
Y5721
Y5821
Y5921
Y6021
Y6121
Y6221
Y6321
Y6421
X378Y6359
X978
X678Y5759
X378Y5159
X978
X1743Y5090
X1878Y4559
X1743Y4370
X1278Y4559
X678
X978Y3959
X2478Y4559
X1878Y5759
X1743Y5810
X2778Y6359
X3078Y6959
X2478
X1878
X1743Y7250
X1578Y7559
X2178
X2778
X2780Y8435
X2680
X2580
X2480
X2380
X2280
X2180
X2080
X1980
X1880
X1780
X1680
X1580
X1480
X1380
X1280
X1180
X1080
X980
X880
X780
X680
X580
X480
X380
X280
X180
X81Y8420
X65Y8321
Y8221
Y8121
Y8021
Y7921
Y7821
Y7721
Y7621
Y7521
Y7421
Y7321
Y7221
Y7121
Y7021
Y6921
Y6821
Y6721
Y6621
Y6521
X678Y6959
X1278
X1743Y6530
X978Y7559
X378
X2880Y8435
X2980
X3080
X3180
X3280
X3380
X3480
X3580
X3680
X3780
X3880
X3980
X4080
X4180
X4280
X4380
X4480
X4580
X4680
X4780
X4880
X4980
X5080
X5180
X5280
X5380
X5480
X5580
X5680
X5780
X5880
X5980
X6080
X6180
X6280
X6380
X6480
X6580
X6680
X6780
X6880
X6980
X7080
X6978Y7559
X6378
X6410Y7050
X6678Y6959
X6800Y6772
X6078Y6959
X5478
X5476Y7250
X5178Y7559
X5778
X5664Y6585
X5476Y6530
X4550Y6555
X4039Y6620
Y6456
X3652
X3669Y6687
X3819
X3769Y6888
X3719Y6848
X3669Y6888
X3498Y6868
X3365Y6950
X3205Y6778
X3652Y7075
Y7175
X3669Y7407
X3819
X4039Y7340
Y7175
X3969Y6960
Y6794
X4132Y6938
X4278Y6959
X4550Y7275
X4578Y7559
X3978
X3378
X4878Y6959
X7278
X7878
X8186Y6731
X8174Y6632
Y6532
X8265Y6792
X8365Y6795
X8435Y6866
Y6966
Y7066
Y7166
Y7266
Y7366
Y7466
Y7566
Y7666
Y7766
Y7866
Y7966
Y8066
Y8166
Y8266
Y8366
X8380Y8435
X8280Y8435
X8180
X8080
X7980
X7880
X7780
X7680
X7580
X7480
X7380
X7280
X7180
X7578Y7559
T02
X149Y273
X149Y447
X273Y571
X447Y571
X571Y447
X571Y273
X447Y149
X273Y149
Y2349
X447Y2349
X571Y2473
X149
X7934
X8057Y2349
X8232Y2349
X8356Y2473
X8351Y447
X8351Y273
X8227Y149
X8053Y149
X7929Y273
X7929Y447
X8053Y571
X8227Y571
X8232Y2771
X8057Y2771
X7934Y2647
X8356
X8227Y3429
X8053Y3429
X7929Y3553
X7929Y3727
X8053Y3851
X8227Y3851
X8351Y3727
X8351Y3553
X571
X571Y3727
X447Y3851
X273Y3851
X149Y3727
X149Y3553
X273Y3429
X447Y3429
Y2771
X273Y2771
X149Y2647
X571
X447Y7929
X273Y7929
X149Y8053
X149Y8227
X273Y8351
X447Y8351
X571Y8227
X571Y8053
X7929
X7929Y8227
X8053Y8351
X8227Y8351
X8351Y8227
X8351Y8053
X8227Y7929
X8053Y7929
T03
X900Y659
X1288
Y1331
X1676
Y2004
X1288
X900Y1331
T04
X4877Y628
X5004
X5131
T05
X360Y360
X8140
X8145Y2560
X8140Y3640
X360
Y2560
Y8140
X8140
M30
